<svg width="508" height="508" viewBox="0 0 508 508" fill="none" xmlns="http://www.w3.org/2000/svg">
<path d="M77.2962 76.2968C92.7385 60.8544 110.138 47.5029 129.051 36.5836L229.01 209.717C225.227 211.901 221.747 214.571 218.659 217.659L77.2962 76.2968Z" fill="#575992"/>
<g filter="url(#filter0_dd_2908_1669)">
<path d="M129.052 36.5835C147.965 25.6641 168.227 17.271 189.322 11.6187L241.064 204.724C236.845 205.854 232.793 207.533 229.01 209.717L129.052 36.5835Z" fill="#E1E0FF"/>
</g>
<path d="M189.322 11.6188C210.417 5.96647 232.161 3.10375 254 3.10376L254 203.021C249.632 203.021 245.283 203.593 241.064 204.724L189.322 11.6188Z" fill="#575992"/>
<g filter="url(#filter1_dd_2908_1669)">
<path d="M254 3.10376C275.839 3.10376 297.583 5.96649 318.678 11.6188L266.935 204.724C262.716 203.593 258.368 203.021 254 203.021V3.10376Z" fill="#E1E0FF"/>
</g>
<path d="M318.678 11.6188C339.772 17.2711 360.035 25.6642 378.948 36.5836L278.989 209.717C275.207 207.533 271.154 205.854 266.935 204.724L318.678 11.6188Z" fill="#575992"/>
<g filter="url(#filter2_dd_2908_1669)">
<path d="M378.948 36.5835C397.861 47.5029 415.261 60.8544 430.703 76.2967L289.34 217.659C286.252 214.571 282.772 211.901 278.989 209.717L378.948 36.5835Z" fill="#E1E0FF"/>
</g>
<path d="M430.703 76.2967C446.145 91.739 459.497 109.139 470.416 128.052L297.283 228.01C295.099 224.228 292.429 220.748 289.34 217.659L430.703 76.2967Z" fill="#575992"/>
<g filter="url(#filter3_dd_2908_1669)">
<path d="M470.416 128.052C481.336 146.965 489.729 167.228 495.381 188.322L302.276 240.064C301.146 235.846 299.467 231.793 297.283 228.01L470.416 128.052Z" fill="#E1E0FF"/>
</g>
<path d="M495.381 188.322C501.033 209.417 503.896 231.161 503.896 253L303.979 253C303.979 248.632 303.406 244.283 302.276 240.064L495.381 188.322Z" fill="#575992"/>
<g filter="url(#filter4_dd_2908_1669)">
<path d="M470.416 377.948C459.497 396.861 446.145 414.261 430.703 429.703L289.34 288.341C292.429 285.252 295.099 281.772 297.283 277.99L470.416 377.948Z" fill="#E1E0FF"/>
</g>
<path d="M430.703 429.703C415.261 445.146 397.861 458.497 378.948 469.417L278.989 296.283C282.772 294.099 286.252 291.429 289.34 288.341L430.703 429.703Z" fill="#575992"/>
<g filter="url(#filter5_dd_2908_1669)">
<path d="M378.948 469.417C360.035 480.336 339.772 488.729 318.678 494.381L266.935 301.276C271.154 300.146 275.207 298.467 278.989 296.283L378.948 469.417Z" fill="#E1E0FF"/>
</g>
<path d="M318.678 494.381C297.583 500.034 275.838 502.896 254 502.896L254 302.979C258.368 302.979 262.716 302.407 266.935 301.276L318.678 494.381Z" fill="#575992"/>
<path d="M189.322 494.381C168.227 488.729 147.964 480.336 129.052 469.416L229.01 296.283C232.793 298.467 236.845 300.146 241.064 301.276L189.322 494.381Z" fill="#575992"/>
<g filter="url(#filter6_dd_2908_1669)">
<path d="M254 502.896C232.161 502.896 210.416 500.034 189.322 494.381L241.064 301.276C245.283 302.407 249.632 302.979 254 302.979L254 502.896Z" fill="#E1E0FF"/>
</g>
<g filter="url(#filter7_dd_2908_1669)">
<path d="M129.052 469.417C110.139 458.497 92.7387 445.146 77.2964 429.703L218.659 288.341C221.748 291.429 225.228 294.099 229.01 296.283L129.052 469.417Z" fill="#E1E0FF"/>
</g>
<path d="M77.2964 429.703C61.8541 414.261 48.5026 396.861 37.5832 377.948L210.716 277.99C212.9 281.772 215.571 285.252 218.659 288.341L77.2964 429.703Z" fill="#575992"/>
<g filter="url(#filter8_dd_2908_1669)">
<path d="M37.5833 377.948C26.6639 359.035 18.2708 338.773 12.6185 317.678L205.724 265.936C206.854 270.155 208.533 274.207 210.716 277.99L37.5833 377.948Z" fill="#E1E0FF"/>
</g>
<path d="M12.6185 317.678C6.96623 296.583 4.10351 274.839 4.10352 253L204.021 253C204.021 257.368 204.593 261.717 205.724 265.936L12.6185 317.678Z" fill="#575992"/>
<g filter="url(#filter9_dd_2908_1669)">
<path d="M4.10352 253C4.10352 231.161 6.96625 209.417 12.6186 188.322L205.724 240.064C204.593 244.283 204.021 248.632 204.021 253L4.10352 253Z" fill="#E1E0FF"/>
</g>
<path d="M12.6185 188.322C18.2708 167.227 26.6639 146.965 37.5833 128.052L210.716 228.01C208.533 231.793 206.854 235.846 205.724 240.064L12.6185 188.322Z" fill="#575992"/>
<g filter="url(#filter10_dd_2908_1669)">
<path d="M37.5833 128.052C48.5027 109.139 61.8541 91.739 77.2965 76.2966L218.659 217.659C215.571 220.748 212.9 224.228 210.716 228.01L37.5833 128.052Z" fill="#E1E0FF"/>
</g>
<path d="M495.381 317.678C489.729 338.773 481.336 359.035 470.416 377.948L297.283 277.99C299.467 274.207 301.146 270.155 302.276 265.936L495.381 317.678Z" fill="#575992"/>
<g filter="url(#filter11_dd_2908_1669)">
<path d="M503.896 253C503.896 274.839 501.033 296.583 495.381 317.678L302.276 265.936C303.406 261.717 303.979 257.368 303.979 253H503.896Z" fill="#E1E0FF"/>
</g>
<defs>
<filter id="filter0_dd_2908_1669" x="125.052" y="8.61874" width="120.012" height="206.098" filterUnits="userSpaceOnUse" color-interpolation-filters="sRGB">
<feFlood flood-opacity="0" result="BackgroundImageFix"/>
<feColorMatrix in="SourceAlpha" type="matrix" values="0 0 0 0 0 0 0 0 0 0 0 0 0 0 0 0 0 0 127 0" result="hardAlpha"/>
<feMorphology radius="1" operator="dilate" in="SourceAlpha" result="effect1_dropShadow_2908_1669"/>
<feOffset dy="1"/>
<feGaussianBlur stdDeviation="1.5"/>
<feColorMatrix type="matrix" values="0 0 0 0 0 0 0 0 0 0 0 0 0 0 0 0 0 0 0.15 0"/>
<feBlend mode="normal" in2="BackgroundImageFix" result="effect1_dropShadow_2908_1669"/>
<feColorMatrix in="SourceAlpha" type="matrix" values="0 0 0 0 0 0 0 0 0 0 0 0 0 0 0 0 0 0 127 0" result="hardAlpha"/>
<feOffset dy="1"/>
<feGaussianBlur stdDeviation="1"/>
<feColorMatrix type="matrix" values="0 0 0 0 0 0 0 0 0 0 0 0 0 0 0 0 0 0 0.3 0"/>
<feBlend mode="normal" in2="effect1_dropShadow_2908_1669" result="effect2_dropShadow_2908_1669"/>
<feBlend mode="normal" in="SourceGraphic" in2="effect2_dropShadow_2908_1669" result="shape"/>
</filter>
<filter id="filter1_dd_2908_1669" x="250" y="0.10376" width="72.678" height="209.62" filterUnits="userSpaceOnUse" color-interpolation-filters="sRGB">
<feFlood flood-opacity="0" result="BackgroundImageFix"/>
<feColorMatrix in="SourceAlpha" type="matrix" values="0 0 0 0 0 0 0 0 0 0 0 0 0 0 0 0 0 0 127 0" result="hardAlpha"/>
<feMorphology radius="1" operator="dilate" in="SourceAlpha" result="effect1_dropShadow_2908_1669"/>
<feOffset dy="1"/>
<feGaussianBlur stdDeviation="1.5"/>
<feColorMatrix type="matrix" values="0 0 0 0 0 0 0 0 0 0 0 0 0 0 0 0 0 0 0.15 0"/>
<feBlend mode="normal" in2="BackgroundImageFix" result="effect1_dropShadow_2908_1669"/>
<feColorMatrix in="SourceAlpha" type="matrix" values="0 0 0 0 0 0 0 0 0 0 0 0 0 0 0 0 0 0 127 0" result="hardAlpha"/>
<feOffset dy="1"/>
<feGaussianBlur stdDeviation="1"/>
<feColorMatrix type="matrix" values="0 0 0 0 0 0 0 0 0 0 0 0 0 0 0 0 0 0 0.3 0"/>
<feBlend mode="normal" in2="effect1_dropShadow_2908_1669" result="effect2_dropShadow_2908_1669"/>
<feBlend mode="normal" in="SourceGraphic" in2="effect2_dropShadow_2908_1669" result="shape"/>
</filter>
<filter id="filter2_dd_2908_1669" x="274.99" y="33.5835" width="159.714" height="189.076" filterUnits="userSpaceOnUse" color-interpolation-filters="sRGB">
<feFlood flood-opacity="0" result="BackgroundImageFix"/>
<feColorMatrix in="SourceAlpha" type="matrix" values="0 0 0 0 0 0 0 0 0 0 0 0 0 0 0 0 0 0 127 0" result="hardAlpha"/>
<feMorphology radius="1" operator="dilate" in="SourceAlpha" result="effect1_dropShadow_2908_1669"/>
<feOffset dy="1"/>
<feGaussianBlur stdDeviation="1.5"/>
<feColorMatrix type="matrix" values="0 0 0 0 0 0 0 0 0 0 0 0 0 0 0 0 0 0 0.15 0"/>
<feBlend mode="normal" in2="BackgroundImageFix" result="effect1_dropShadow_2908_1669"/>
<feColorMatrix in="SourceAlpha" type="matrix" values="0 0 0 0 0 0 0 0 0 0 0 0 0 0 0 0 0 0 127 0" result="hardAlpha"/>
<feOffset dy="1"/>
<feGaussianBlur stdDeviation="1"/>
<feColorMatrix type="matrix" values="0 0 0 0 0 0 0 0 0 0 0 0 0 0 0 0 0 0 0.3 0"/>
<feBlend mode="normal" in2="effect1_dropShadow_2908_1669" result="effect2_dropShadow_2908_1669"/>
<feBlend mode="normal" in="SourceGraphic" in2="effect2_dropShadow_2908_1669" result="shape"/>
</filter>
<filter id="filter3_dd_2908_1669" x="293.283" y="125.052" width="206.098" height="120.013" filterUnits="userSpaceOnUse" color-interpolation-filters="sRGB">
<feFlood flood-opacity="0" result="BackgroundImageFix"/>
<feColorMatrix in="SourceAlpha" type="matrix" values="0 0 0 0 0 0 0 0 0 0 0 0 0 0 0 0 0 0 127 0" result="hardAlpha"/>
<feMorphology radius="1" operator="dilate" in="SourceAlpha" result="effect1_dropShadow_2908_1669"/>
<feOffset dy="1"/>
<feGaussianBlur stdDeviation="1.5"/>
<feColorMatrix type="matrix" values="0 0 0 0 0 0 0 0 0 0 0 0 0 0 0 0 0 0 0.15 0"/>
<feBlend mode="normal" in2="BackgroundImageFix" result="effect1_dropShadow_2908_1669"/>
<feColorMatrix in="SourceAlpha" type="matrix" values="0 0 0 0 0 0 0 0 0 0 0 0 0 0 0 0 0 0 127 0" result="hardAlpha"/>
<feOffset dy="1"/>
<feGaussianBlur stdDeviation="1"/>
<feColorMatrix type="matrix" values="0 0 0 0 0 0 0 0 0 0 0 0 0 0 0 0 0 0 0.3 0"/>
<feBlend mode="normal" in2="effect1_dropShadow_2908_1669" result="effect2_dropShadow_2908_1669"/>
<feBlend mode="normal" in="SourceGraphic" in2="effect2_dropShadow_2908_1669" result="shape"/>
</filter>
<filter id="filter4_dd_2908_1669" x="285.34" y="274.99" width="189.076" height="159.714" filterUnits="userSpaceOnUse" color-interpolation-filters="sRGB">
<feFlood flood-opacity="0" result="BackgroundImageFix"/>
<feColorMatrix in="SourceAlpha" type="matrix" values="0 0 0 0 0 0 0 0 0 0 0 0 0 0 0 0 0 0 127 0" result="hardAlpha"/>
<feMorphology radius="1" operator="dilate" in="SourceAlpha" result="effect1_dropShadow_2908_1669"/>
<feOffset dy="1"/>
<feGaussianBlur stdDeviation="1.5"/>
<feColorMatrix type="matrix" values="0 0 0 0 0 0 0 0 0 0 0 0 0 0 0 0 0 0 0.15 0"/>
<feBlend mode="normal" in2="BackgroundImageFix" result="effect1_dropShadow_2908_1669"/>
<feColorMatrix in="SourceAlpha" type="matrix" values="0 0 0 0 0 0 0 0 0 0 0 0 0 0 0 0 0 0 127 0" result="hardAlpha"/>
<feOffset dy="1"/>
<feGaussianBlur stdDeviation="1"/>
<feColorMatrix type="matrix" values="0 0 0 0 0 0 0 0 0 0 0 0 0 0 0 0 0 0 0.3 0"/>
<feBlend mode="normal" in2="effect1_dropShadow_2908_1669" result="effect2_dropShadow_2908_1669"/>
<feBlend mode="normal" in="SourceGraphic" in2="effect2_dropShadow_2908_1669" result="shape"/>
</filter>
<filter id="filter5_dd_2908_1669" x="262.935" y="293.283" width="120.013" height="206.098" filterUnits="userSpaceOnUse" color-interpolation-filters="sRGB">
<feFlood flood-opacity="0" result="BackgroundImageFix"/>
<feColorMatrix in="SourceAlpha" type="matrix" values="0 0 0 0 0 0 0 0 0 0 0 0 0 0 0 0 0 0 127 0" result="hardAlpha"/>
<feMorphology radius="1" operator="dilate" in="SourceAlpha" result="effect1_dropShadow_2908_1669"/>
<feOffset dy="1"/>
<feGaussianBlur stdDeviation="1.5"/>
<feColorMatrix type="matrix" values="0 0 0 0 0 0 0 0 0 0 0 0 0 0 0 0 0 0 0.15 0"/>
<feBlend mode="normal" in2="BackgroundImageFix" result="effect1_dropShadow_2908_1669"/>
<feColorMatrix in="SourceAlpha" type="matrix" values="0 0 0 0 0 0 0 0 0 0 0 0 0 0 0 0 0 0 127 0" result="hardAlpha"/>
<feOffset dy="1"/>
<feGaussianBlur stdDeviation="1"/>
<feColorMatrix type="matrix" values="0 0 0 0 0 0 0 0 0 0 0 0 0 0 0 0 0 0 0.3 0"/>
<feBlend mode="normal" in2="effect1_dropShadow_2908_1669" result="effect2_dropShadow_2908_1669"/>
<feBlend mode="normal" in="SourceGraphic" in2="effect2_dropShadow_2908_1669" result="shape"/>
</filter>
<filter id="filter6_dd_2908_1669" x="185.322" y="298.276" width="72.678" height="209.62" filterUnits="userSpaceOnUse" color-interpolation-filters="sRGB">
<feFlood flood-opacity="0" result="BackgroundImageFix"/>
<feColorMatrix in="SourceAlpha" type="matrix" values="0 0 0 0 0 0 0 0 0 0 0 0 0 0 0 0 0 0 127 0" result="hardAlpha"/>
<feMorphology radius="1" operator="dilate" in="SourceAlpha" result="effect1_dropShadow_2908_1669"/>
<feOffset dy="1"/>
<feGaussianBlur stdDeviation="1.5"/>
<feColorMatrix type="matrix" values="0 0 0 0 0 0 0 0 0 0 0 0 0 0 0 0 0 0 0.15 0"/>
<feBlend mode="normal" in2="BackgroundImageFix" result="effect1_dropShadow_2908_1669"/>
<feColorMatrix in="SourceAlpha" type="matrix" values="0 0 0 0 0 0 0 0 0 0 0 0 0 0 0 0 0 0 127 0" result="hardAlpha"/>
<feOffset dy="1"/>
<feGaussianBlur stdDeviation="1"/>
<feColorMatrix type="matrix" values="0 0 0 0 0 0 0 0 0 0 0 0 0 0 0 0 0 0 0.3 0"/>
<feBlend mode="normal" in2="effect1_dropShadow_2908_1669" result="effect2_dropShadow_2908_1669"/>
<feBlend mode="normal" in="SourceGraphic" in2="effect2_dropShadow_2908_1669" result="shape"/>
</filter>
<filter id="filter7_dd_2908_1669" x="73.2964" y="285.341" width="159.714" height="189.076" filterUnits="userSpaceOnUse" color-interpolation-filters="sRGB">
<feFlood flood-opacity="0" result="BackgroundImageFix"/>
<feColorMatrix in="SourceAlpha" type="matrix" values="0 0 0 0 0 0 0 0 0 0 0 0 0 0 0 0 0 0 127 0" result="hardAlpha"/>
<feMorphology radius="1" operator="dilate" in="SourceAlpha" result="effect1_dropShadow_2908_1669"/>
<feOffset dy="1"/>
<feGaussianBlur stdDeviation="1.5"/>
<feColorMatrix type="matrix" values="0 0 0 0 0 0 0 0 0 0 0 0 0 0 0 0 0 0 0.15 0"/>
<feBlend mode="normal" in2="BackgroundImageFix" result="effect1_dropShadow_2908_1669"/>
<feColorMatrix in="SourceAlpha" type="matrix" values="0 0 0 0 0 0 0 0 0 0 0 0 0 0 0 0 0 0 127 0" result="hardAlpha"/>
<feOffset dy="1"/>
<feGaussianBlur stdDeviation="1"/>
<feColorMatrix type="matrix" values="0 0 0 0 0 0 0 0 0 0 0 0 0 0 0 0 0 0 0.3 0"/>
<feBlend mode="normal" in2="effect1_dropShadow_2908_1669" result="effect2_dropShadow_2908_1669"/>
<feBlend mode="normal" in="SourceGraphic" in2="effect2_dropShadow_2908_1669" result="shape"/>
</filter>
<filter id="filter8_dd_2908_1669" x="8.61841" y="262.936" width="206.098" height="120.013" filterUnits="userSpaceOnUse" color-interpolation-filters="sRGB">
<feFlood flood-opacity="0" result="BackgroundImageFix"/>
<feColorMatrix in="SourceAlpha" type="matrix" values="0 0 0 0 0 0 0 0 0 0 0 0 0 0 0 0 0 0 127 0" result="hardAlpha"/>
<feMorphology radius="1" operator="dilate" in="SourceAlpha" result="effect1_dropShadow_2908_1669"/>
<feOffset dy="1"/>
<feGaussianBlur stdDeviation="1.5"/>
<feColorMatrix type="matrix" values="0 0 0 0 0 0 0 0 0 0 0 0 0 0 0 0 0 0 0.15 0"/>
<feBlend mode="normal" in2="BackgroundImageFix" result="effect1_dropShadow_2908_1669"/>
<feColorMatrix in="SourceAlpha" type="matrix" values="0 0 0 0 0 0 0 0 0 0 0 0 0 0 0 0 0 0 127 0" result="hardAlpha"/>
<feOffset dy="1"/>
<feGaussianBlur stdDeviation="1"/>
<feColorMatrix type="matrix" values="0 0 0 0 0 0 0 0 0 0 0 0 0 0 0 0 0 0 0.3 0"/>
<feBlend mode="normal" in2="effect1_dropShadow_2908_1669" result="effect2_dropShadow_2908_1669"/>
<feBlend mode="normal" in="SourceGraphic" in2="effect2_dropShadow_2908_1669" result="shape"/>
</filter>
<filter id="filter9_dd_2908_1669" x="0.103516" y="185.322" width="209.62" height="72.678" filterUnits="userSpaceOnUse" color-interpolation-filters="sRGB">
<feFlood flood-opacity="0" result="BackgroundImageFix"/>
<feColorMatrix in="SourceAlpha" type="matrix" values="0 0 0 0 0 0 0 0 0 0 0 0 0 0 0 0 0 0 127 0" result="hardAlpha"/>
<feMorphology radius="1" operator="dilate" in="SourceAlpha" result="effect1_dropShadow_2908_1669"/>
<feOffset dy="1"/>
<feGaussianBlur stdDeviation="1.5"/>
<feColorMatrix type="matrix" values="0 0 0 0 0 0 0 0 0 0 0 0 0 0 0 0 0 0 0.15 0"/>
<feBlend mode="normal" in2="BackgroundImageFix" result="effect1_dropShadow_2908_1669"/>
<feColorMatrix in="SourceAlpha" type="matrix" values="0 0 0 0 0 0 0 0 0 0 0 0 0 0 0 0 0 0 127 0" result="hardAlpha"/>
<feOffset dy="1"/>
<feGaussianBlur stdDeviation="1"/>
<feColorMatrix type="matrix" values="0 0 0 0 0 0 0 0 0 0 0 0 0 0 0 0 0 0 0.3 0"/>
<feBlend mode="normal" in2="effect1_dropShadow_2908_1669" result="effect2_dropShadow_2908_1669"/>
<feBlend mode="normal" in="SourceGraphic" in2="effect2_dropShadow_2908_1669" result="shape"/>
</filter>
<filter id="filter10_dd_2908_1669" x="33.5833" y="73.2966" width="189.076" height="159.714" filterUnits="userSpaceOnUse" color-interpolation-filters="sRGB">
<feFlood flood-opacity="0" result="BackgroundImageFix"/>
<feColorMatrix in="SourceAlpha" type="matrix" values="0 0 0 0 0 0 0 0 0 0 0 0 0 0 0 0 0 0 127 0" result="hardAlpha"/>
<feMorphology radius="1" operator="dilate" in="SourceAlpha" result="effect1_dropShadow_2908_1669"/>
<feOffset dy="1"/>
<feGaussianBlur stdDeviation="1.5"/>
<feColorMatrix type="matrix" values="0 0 0 0 0 0 0 0 0 0 0 0 0 0 0 0 0 0 0.15 0"/>
<feBlend mode="normal" in2="BackgroundImageFix" result="effect1_dropShadow_2908_1669"/>
<feColorMatrix in="SourceAlpha" type="matrix" values="0 0 0 0 0 0 0 0 0 0 0 0 0 0 0 0 0 0 127 0" result="hardAlpha"/>
<feOffset dy="1"/>
<feGaussianBlur stdDeviation="1"/>
<feColorMatrix type="matrix" values="0 0 0 0 0 0 0 0 0 0 0 0 0 0 0 0 0 0 0.3 0"/>
<feBlend mode="normal" in2="effect1_dropShadow_2908_1669" result="effect2_dropShadow_2908_1669"/>
<feBlend mode="normal" in="SourceGraphic" in2="effect2_dropShadow_2908_1669" result="shape"/>
</filter>
<filter id="filter11_dd_2908_1669" x="298.276" y="250" width="209.62" height="72.678" filterUnits="userSpaceOnUse" color-interpolation-filters="sRGB">
<feFlood flood-opacity="0" result="BackgroundImageFix"/>
<feColorMatrix in="SourceAlpha" type="matrix" values="0 0 0 0 0 0 0 0 0 0 0 0 0 0 0 0 0 0 127 0" result="hardAlpha"/>
<feMorphology radius="1" operator="dilate" in="SourceAlpha" result="effect1_dropShadow_2908_1669"/>
<feOffset dy="1"/>
<feGaussianBlur stdDeviation="1.5"/>
<feColorMatrix type="matrix" values="0 0 0 0 0 0 0 0 0 0 0 0 0 0 0 0 0 0 0.15 0"/>
<feBlend mode="normal" in2="BackgroundImageFix" result="effect1_dropShadow_2908_1669"/>
<feColorMatrix in="SourceAlpha" type="matrix" values="0 0 0 0 0 0 0 0 0 0 0 0 0 0 0 0 0 0 127 0" result="hardAlpha"/>
<feOffset dy="1"/>
<feGaussianBlur stdDeviation="1"/>
<feColorMatrix type="matrix" values="0 0 0 0 0 0 0 0 0 0 0 0 0 0 0 0 0 0 0.3 0"/>
<feBlend mode="normal" in2="effect1_dropShadow_2908_1669" result="effect2_dropShadow_2908_1669"/>
<feBlend mode="normal" in="SourceGraphic" in2="effect2_dropShadow_2908_1669" result="shape"/>
</filter>
</defs>
</svg>
